<svg width="170" height="45" viewBox="0 0 170 45" fill="none" xmlns="http://www.w3.org/2000/svg">
<rect x="1.375" y="1.375" width="166.375" height="41.9375" rx="20.9688" stroke="#FFD6D6" stroke-width="2.75"/>
<mask id="path-2-outside-1_2272_98" maskUnits="userSpaceOnUse" x="51.5625" y="16.3438" width="66" height="12" fill="black">
<rect fill="white" x="51.5625" y="16.3438" width="66" height="12"/>
<path d="M56.3159 21.6504C56.8799 21.6504 57.3185 21.5721 57.6318 21.4154C58.1242 21.1692 58.3704 20.7261 58.3704 20.0861C58.3704 19.4415 58.1085 19.0074 57.5848 18.7836C57.2894 18.6582 56.8508 18.5956 56.2689 18.5956H53.8855V21.6504H56.3159ZM56.7657 26.2024C57.5848 26.2024 58.1689 25.9652 58.5181 25.4907C58.7374 25.1908 58.847 24.8283 58.847 24.4031C58.847 23.6869 58.527 23.1991 57.887 22.9395C57.5468 22.8007 57.097 22.7313 56.5375 22.7313H53.8855V26.2024H56.7657ZM52.5763 17.4811H56.8127C57.9675 17.4811 58.7889 17.8257 59.2767 18.515C59.5632 18.9223 59.7064 19.3923 59.7064 19.9249C59.7064 20.5471 59.5296 21.0573 59.176 21.4557C58.9925 21.6661 58.7284 21.8585 58.3838 22.0331C58.8896 22.2255 59.2678 22.4426 59.5184 22.6843C59.9615 23.114 60.1831 23.7071 60.1831 24.4635C60.1831 25.0991 59.9839 25.6742 59.5856 26.189C58.9903 26.9588 58.0436 27.3438 56.7456 27.3438H52.5763V17.4811ZM63.2312 17.4811V23.5773C63.2312 24.2934 63.3655 24.8887 63.634 25.3632C64.0324 26.0793 64.7038 26.4374 65.6482 26.4374C66.7806 26.4374 67.5505 26.0502 67.9578 25.2759C68.1771 24.8551 68.2867 24.2889 68.2867 23.5773V17.4811H69.6429V23.02C69.6429 24.233 69.4796 25.1662 69.1528 25.8197C68.5531 27.0103 67.4207 27.6056 65.7556 27.6056C64.0906 27.6056 62.9604 27.0103 62.3651 25.8197C62.0384 25.1662 61.875 24.233 61.875 23.02V17.4811H63.2312ZM70.9521 17.4811H72.5098L75.343 22.2211L78.1763 17.4811H79.7406L76.0144 23.3691V27.3438H74.6783V23.3691L70.9521 17.4811ZM84.4739 17.4811H86.0516L91.0333 25.4706V17.4811H92.3022V27.3438H90.8051L85.7495 19.361V27.3438H84.4739V17.4811ZM98.667 17.2125C100.408 17.2125 101.697 17.772 102.534 18.891C103.188 19.7638 103.514 20.8805 103.514 22.2412C103.514 23.7138 103.141 24.9379 102.393 25.9137C101.516 27.0595 100.265 27.6324 98.6401 27.6324C97.1228 27.6324 95.93 27.1311 95.0616 26.1285C94.2873 25.1617 93.9001 23.9398 93.9001 22.4628C93.9001 21.1289 94.2314 19.9876 94.8938 19.0387C95.7442 17.8212 97.002 17.2125 98.667 17.2125ZM98.8013 26.4374C99.9784 26.4374 100.829 26.0166 101.353 25.1752C101.881 24.3292 102.145 23.358 102.145 22.2614C102.145 21.1021 101.84 20.1689 101.232 19.4617C100.627 18.7545 99.7994 18.4009 98.7476 18.4009C97.7271 18.4009 96.8945 18.7522 96.25 19.455C95.6055 20.1532 95.2832 21.1849 95.2832 22.55C95.2832 23.6422 95.5585 24.5642 96.109 25.3162C96.664 26.0636 97.5614 26.4374 98.8013 26.4374ZM105.764 17.4811L107.623 25.5042L109.852 17.4811H111.302L113.531 25.5042L115.391 17.4811H116.855L114.263 27.3438H112.86L110.584 19.1663L108.295 27.3438H106.891L104.313 17.4811H105.764Z"/>
</mask>
<path d="M56.3159 21.6504C56.8799 21.6504 57.3185 21.5721 57.6318 21.4154C58.1242 21.1692 58.3704 20.7261 58.3704 20.0861C58.3704 19.4415 58.1085 19.0074 57.5848 18.7836C57.2894 18.6582 56.8508 18.5956 56.2689 18.5956H53.8855V21.6504H56.3159ZM56.7657 26.2024C57.5848 26.2024 58.1689 25.9652 58.5181 25.4907C58.7374 25.1908 58.847 24.8283 58.847 24.4031C58.847 23.6869 58.527 23.1991 57.887 22.9395C57.5468 22.8007 57.097 22.7313 56.5375 22.7313H53.8855V26.2024H56.7657ZM52.5763 17.4811H56.8127C57.9675 17.4811 58.7889 17.8257 59.2767 18.515C59.5632 18.9223 59.7064 19.3923 59.7064 19.9249C59.7064 20.5471 59.5296 21.0573 59.176 21.4557C58.9925 21.6661 58.7284 21.8585 58.3838 22.0331C58.8896 22.2255 59.2678 22.4426 59.5184 22.6843C59.9615 23.114 60.1831 23.7071 60.1831 24.4635C60.1831 25.0991 59.9839 25.6742 59.5856 26.189C58.9903 26.9588 58.0436 27.3438 56.7456 27.3438H52.5763V17.4811ZM63.2312 17.4811V23.5773C63.2312 24.2934 63.3655 24.8887 63.634 25.3632C64.0324 26.0793 64.7038 26.4374 65.6482 26.4374C66.7806 26.4374 67.5505 26.0502 67.9578 25.2759C68.1771 24.8551 68.2867 24.2889 68.2867 23.5773V17.4811H69.6429V23.02C69.6429 24.233 69.4796 25.1662 69.1528 25.8197C68.5531 27.0103 67.4207 27.6056 65.7556 27.6056C64.0906 27.6056 62.9604 27.0103 62.3651 25.8197C62.0384 25.1662 61.875 24.233 61.875 23.02V17.4811H63.2312ZM70.9521 17.4811H72.5098L75.343 22.2211L78.1763 17.4811H79.7406L76.0144 23.3691V27.3438H74.6783V23.3691L70.9521 17.4811ZM84.4739 17.4811H86.0516L91.0333 25.4706V17.4811H92.3022V27.3438H90.8051L85.7495 19.361V27.3438H84.4739V17.4811ZM98.667 17.2125C100.408 17.2125 101.697 17.772 102.534 18.891C103.188 19.7638 103.514 20.8805 103.514 22.2412C103.514 23.7138 103.141 24.9379 102.393 25.9137C101.516 27.0595 100.265 27.6324 98.6401 27.6324C97.1228 27.6324 95.93 27.1311 95.0616 26.1285C94.2873 25.1617 93.9001 23.9398 93.9001 22.4628C93.9001 21.1289 94.2314 19.9876 94.8938 19.0387C95.7442 17.8212 97.002 17.2125 98.667 17.2125ZM98.8013 26.4374C99.9784 26.4374 100.829 26.0166 101.353 25.1752C101.881 24.3292 102.145 23.358 102.145 22.2614C102.145 21.1021 101.84 20.1689 101.232 19.4617C100.627 18.7545 99.7994 18.4009 98.7476 18.4009C97.7271 18.4009 96.8945 18.7522 96.25 19.455C95.6055 20.1532 95.2832 21.1849 95.2832 22.55C95.2832 23.6422 95.5585 24.5642 96.109 25.3162C96.664 26.0636 97.5614 26.4374 98.8013 26.4374ZM105.764 17.4811L107.623 25.5042L109.852 17.4811H111.302L113.531 25.5042L115.391 17.4811H116.855L114.263 27.3438H112.86L110.584 19.1663L108.295 27.3438H106.891L104.313 17.4811H105.764Z" fill="white"/>
<path d="M57.6318 21.4154L57.558 21.2678L57.6318 21.4154ZM57.5848 18.7836L57.6497 18.6318L57.6493 18.6317L57.5848 18.7836ZM53.8855 18.5956V18.4306H53.7205V18.5956H53.8855ZM53.8855 21.6504H53.7205V21.8154H53.8855V21.6504ZM58.5181 25.4907L58.651 25.5885L58.6512 25.5881L58.5181 25.4907ZM57.887 22.9395L57.8246 23.0922L57.8249 23.0924L57.887 22.9395ZM53.8855 22.7313V22.5663H53.7205V22.7313H53.8855ZM53.8855 26.2024H53.7205V26.3674H53.8855V26.2024ZM52.5763 17.4811V17.3161H52.4113V17.4811H52.5763ZM59.2767 18.515L59.4117 18.4201L59.4114 18.4197L59.2767 18.515ZM59.176 21.4557L59.0526 21.3462L59.0517 21.3472L59.176 21.4557ZM58.3838 22.0331L58.3092 21.8859L57.9762 22.0545L58.3251 22.1873L58.3838 22.0331ZM59.5184 22.6843L59.6333 22.5659L59.633 22.5656L59.5184 22.6843ZM59.5856 26.189L59.4551 26.088L59.455 26.088L59.5856 26.189ZM52.5763 27.3438H52.4113V27.5087H52.5763V27.3438ZM56.3159 21.6504V21.8154C56.8916 21.8154 57.3596 21.736 57.7056 21.563L57.6318 21.4154L57.558 21.2678C57.2775 21.4081 56.8682 21.4854 56.3159 21.4854V21.6504ZM57.6318 21.4154L57.7056 21.563C57.9789 21.4264 58.1893 21.2317 58.33 20.9786C58.4698 20.7269 58.5354 20.4269 58.5354 20.0861H58.3704H58.2054C58.2054 20.3853 58.1478 20.6269 58.0415 20.8183C57.936 21.0083 57.7772 21.1583 57.558 21.2678L57.6318 21.4154ZM58.3704 20.0861H58.5354C58.5354 19.7418 58.4654 19.4407 58.3153 19.1918C58.1643 18.9415 57.9393 18.7556 57.6497 18.6318L57.5848 18.7836L57.52 18.9353C57.7541 19.0353 57.9218 19.1784 58.0327 19.3623C58.1444 19.5475 58.2054 19.7858 58.2054 20.0861H58.3704ZM57.5848 18.7836L57.6493 18.6317C57.3231 18.4933 56.8579 18.4306 56.2689 18.4306V18.5956V18.7606C56.8437 18.7606 57.2557 18.8232 57.5204 18.9355L57.5848 18.7836ZM56.2689 18.5956V18.4306H53.8855V18.5956V18.7606H56.2689V18.5956ZM53.8855 18.5956H53.7205V21.6504H53.8855H54.0505V18.5956H53.8855ZM53.8855 21.6504V21.8154H56.3159V21.6504V21.4854H53.8855V21.6504ZM56.7657 26.2024V26.3674C57.6154 26.3674 58.2597 26.1202 58.651 25.5885L58.5181 25.4907L58.3852 25.3929C58.0782 25.8101 57.5543 26.0374 56.7657 26.0374V26.2024ZM58.5181 25.4907L58.6512 25.5881C58.8941 25.256 59.012 24.858 59.012 24.4031H58.847H58.682C58.682 24.7985 58.5806 25.1257 58.3849 25.3933L58.5181 25.4907ZM58.847 24.4031H59.012C59.012 24.0202 58.9263 23.6859 58.745 23.4096C58.5634 23.1327 58.2942 22.9266 57.949 22.7866L57.887 22.9395L57.8249 23.0924C58.1197 23.2119 58.3306 23.3795 58.4691 23.5906C58.6078 23.8021 58.682 24.0698 58.682 24.4031H58.847ZM57.887 22.9395L57.9493 22.7867C57.5818 22.6368 57.1083 22.5663 56.5375 22.5663V22.7313V22.8963C57.0856 22.8963 57.5118 22.9646 57.8246 23.0922L57.887 22.9395ZM56.5375 22.7313V22.5663H53.8855V22.7313V22.8963H56.5375V22.7313ZM53.8855 22.7313H53.7205V26.2024H53.8855H54.0505V22.7313H53.8855ZM53.8855 26.2024V26.3674H56.7657V26.2024V26.0374H53.8855V26.2024ZM52.5763 17.4811V17.6461H56.8127V17.4811V17.3161H52.5763V17.4811ZM56.8127 17.4811V17.6461C57.9354 17.6461 58.6957 17.9797 59.1421 18.6103L59.2767 18.515L59.4114 18.4197C58.882 17.6718 57.9997 17.3161 56.8127 17.3161V17.4811ZM59.2767 18.515L59.1418 18.6099C59.4073 18.9875 59.5414 19.4238 59.5414 19.9249H59.7064H59.8714C59.8714 19.3608 59.7191 18.8572 59.4117 18.4201L59.2767 18.515ZM59.7064 19.9249H59.5414C59.5414 20.5139 59.375 20.983 59.0526 21.3462L59.176 21.4557L59.2994 21.5652C59.6842 21.1317 59.8714 20.5803 59.8714 19.9249H59.7064ZM59.176 21.4557L59.0517 21.3472C58.8864 21.5367 58.6417 21.7175 58.3092 21.8859L58.3838 22.0331L58.4583 22.1803C58.8151 21.9996 59.0987 21.7954 59.3004 21.5642L59.176 21.4557ZM58.3838 22.0331L58.3251 22.1873C58.8204 22.3758 59.1757 22.583 59.4039 22.8031L59.5184 22.6843L59.633 22.5656C59.3599 22.3022 58.9588 22.0753 58.4425 21.8789L58.3838 22.0331ZM59.5184 22.6843L59.4036 22.8028C59.8077 23.1946 60.0181 23.741 60.0181 24.4635H60.1831H60.3481C60.3481 23.6732 60.1154 23.0334 59.6333 22.5659L59.5184 22.6843ZM60.1831 24.4635H60.0181C60.0181 25.0616 59.8316 25.6014 59.4551 26.088L59.5856 26.189L59.7161 26.29C60.1362 25.7471 60.3481 25.1366 60.3481 24.4635H60.1831ZM59.5856 26.189L59.455 26.088C58.9007 26.8049 58.0109 27.1788 56.7456 27.1788V27.3438V27.5087C58.0763 27.5087 59.0798 27.1128 59.7161 26.2899L59.5856 26.189ZM56.7456 27.3438V27.1788H52.5763V27.3438V27.5087H56.7456V27.3438ZM52.5763 27.3438H52.7413V17.4811H52.5763H52.4113V27.3438H52.5763ZM63.2312 17.4811H63.3962V17.3161H63.2312V17.4811ZM63.634 25.3632L63.7782 25.2829L63.7776 25.2819L63.634 25.3632ZM67.9578 25.2759L68.1038 25.3527L68.1041 25.3521L67.9578 25.2759ZM68.2867 17.4811V17.3161H68.1217V17.4811H68.2867ZM69.6429 17.4811H69.8079V17.3161H69.6429V17.4811ZM69.1528 25.8197L69.3002 25.8939L69.3004 25.8935L69.1528 25.8197ZM61.875 17.4811V17.3161H61.71V17.4811H61.875ZM63.2312 17.4811H63.0662V23.5773H63.2312H63.3962V17.4811H63.2312ZM63.2312 23.5773H63.0662C63.0662 24.3132 63.2041 24.9386 63.4904 25.4444L63.634 25.3632L63.7776 25.2819C63.5268 24.8388 63.3962 24.2736 63.3962 23.5773H63.2312ZM63.634 25.3632L63.4898 25.4434C63.9223 26.2208 64.6549 26.6024 65.6482 26.6024V26.4374V26.2724C64.7527 26.2724 64.1425 25.9378 63.7782 25.283L63.634 25.3632ZM65.6482 26.4374V26.6024C66.8208 26.6024 67.6593 26.1977 68.1038 25.3527L67.9578 25.2759L67.8117 25.1991C67.4416 25.9027 66.7404 26.2724 65.6482 26.2724V26.4374ZM67.9578 25.2759L68.1041 25.3521C68.3403 24.899 68.4517 24.3033 68.4517 23.5773H68.2867H68.1217C68.1217 24.2746 68.0139 24.8113 67.8114 25.1996L67.9578 25.2759ZM68.2867 23.5773H68.4517V17.4811H68.2867H68.1217V23.5773H68.2867ZM68.2867 17.4811V17.6461H69.6429V17.4811V17.3161H68.2867V17.4811ZM69.6429 17.4811H69.4779V23.02H69.6429H69.8079V17.4811H69.6429ZM69.6429 23.02H69.4779C69.4779 24.2222 69.3154 25.1257 69.0053 25.7459L69.1528 25.8197L69.3004 25.8935C69.6438 25.2067 69.8079 24.2437 69.8079 23.02H69.6429ZM69.1528 25.8197L69.0055 25.7455C68.4412 26.8656 67.3769 27.4406 65.7556 27.4406V27.6056V27.7706C67.4644 27.7706 68.6649 27.155 69.3002 25.8939L69.1528 25.8197ZM65.7556 27.6056V27.4406C64.1343 27.4406 63.0725 26.8656 62.5127 25.7459L62.3651 25.8197L62.2175 25.8935C62.8483 27.155 64.0468 27.7706 65.7556 27.7706V27.6056ZM62.3651 25.8197L62.5127 25.7459C62.2026 25.1257 62.04 24.2222 62.04 23.02H61.875H61.71C61.71 24.2437 61.8742 25.2067 62.2175 25.8935L62.3651 25.8197ZM61.875 23.02H62.04V17.4811H61.875H61.71V23.02H61.875ZM61.875 17.4811V17.6461H63.2312V17.4811V17.3161H61.875V17.4811ZM70.9521 17.4811V17.3161H70.6525L70.8127 17.5693L70.9521 17.4811ZM72.5098 17.4811L72.6514 17.3964L72.6034 17.3161H72.5098V17.4811ZM75.343 22.2211L75.2014 22.3057L75.343 22.5427L75.4846 22.3057L75.343 22.2211ZM78.1763 17.4811V17.3161H78.0827L78.0346 17.3964L78.1763 17.4811ZM79.7406 17.4811L79.88 17.5693L80.0403 17.3161H79.7406V17.4811ZM76.0144 23.3691L75.875 23.2809L75.8494 23.3213V23.3691H76.0144ZM76.0144 27.3438V27.5087H76.1794V27.3438H76.0144ZM74.6783 27.3438H74.5133V27.5087H74.6783V27.3438ZM74.6783 23.3691H74.8433V23.3213L74.8178 23.2809L74.6783 23.3691ZM70.9521 17.4811V17.6461H72.5098V17.4811V17.3161H70.9521V17.4811ZM72.5098 17.4811L72.3681 17.5657L75.2014 22.3057L75.343 22.2211L75.4846 22.1364L72.6514 17.3964L72.5098 17.4811ZM75.343 22.2211L75.4846 22.3057L78.3179 17.5657L78.1763 17.4811L78.0346 17.3964L75.2014 22.1364L75.343 22.2211ZM78.1763 17.4811V17.6461H79.7406V17.4811V17.3161H78.1763V17.4811ZM79.7406 17.4811L79.6012 17.3928L75.875 23.2809L76.0144 23.3691L76.1538 23.4574L79.88 17.5693L79.7406 17.4811ZM76.0144 23.3691H75.8494V27.3438H76.0144H76.1794V23.3691H76.0144ZM76.0144 27.3438V27.1788H74.6783V27.3438V27.5087H76.0144V27.3438ZM74.6783 27.3438H74.8433V23.3691H74.6783H74.5133V27.3438H74.6783ZM74.6783 23.3691L74.8178 23.2809L71.0916 17.3928L70.9521 17.4811L70.8127 17.5693L74.5389 23.4574L74.6783 23.3691ZM84.4739 17.4811V17.3161H84.3089V17.4811H84.4739ZM86.0516 17.4811L86.1916 17.3938L86.1432 17.3161H86.0516V17.4811ZM91.0333 25.4706L90.8933 25.5579L91.1983 26.0471V25.4706H91.0333ZM91.0333 17.4811V17.3161H90.8683V17.4811H91.0333ZM92.3022 17.4811H92.4672V17.3161H92.3022V17.4811ZM92.3022 27.3438V27.5087H92.4672V27.3438H92.3022ZM90.8051 27.3438L90.6657 27.432L90.7142 27.5087H90.8051V27.3438ZM85.7495 19.361L85.8889 19.2727L85.5845 18.792V19.361H85.7495ZM85.7495 27.3438V27.5087H85.9145V27.3438H85.7495ZM84.4739 27.3438H84.3089V27.5087H84.4739V27.3438ZM84.4739 17.4811V17.6461H86.0516V17.4811V17.3161H84.4739V17.4811ZM86.0516 17.4811L85.9116 17.5684L90.8933 25.5579L91.0333 25.4706L91.1733 25.3833L86.1916 17.3938L86.0516 17.4811ZM91.0333 25.4706H91.1983V17.4811H91.0333H90.8683V25.4706H91.0333ZM91.0333 17.4811V17.6461H92.3022V17.4811V17.3161H91.0333V17.4811ZM92.3022 17.4811H92.1372V27.3438H92.3022H92.4672V17.4811H92.3022ZM92.3022 27.3438V27.1788H90.8051V27.3438V27.5087H92.3022V27.3438ZM90.8051 27.3438L90.9445 27.2555L85.8889 19.2727L85.7495 19.361L85.6101 19.4492L90.6657 27.432L90.8051 27.3438ZM85.7495 19.361H85.5845V27.3438H85.7495H85.9145V19.361H85.7495ZM85.7495 27.3438V27.1788H84.4739V27.3438V27.5087H85.7495V27.3438ZM84.4739 27.3438H84.6389V17.4811H84.4739H84.3089V27.3438H84.4739ZM102.534 18.891L102.402 18.9898L102.402 18.9899L102.534 18.891ZM102.393 25.9137L102.262 25.8134L102.262 25.8134L102.393 25.9137ZM95.0616 26.1285L94.9328 26.2318L94.9369 26.2366L95.0616 26.1285ZM94.8938 19.0387L94.7585 18.9442L94.7585 18.9442L94.8938 19.0387ZM101.353 25.1752L101.213 25.0878L101.212 25.088L101.353 25.1752ZM101.232 19.4617L101.106 19.5689L101.107 19.5693L101.232 19.4617ZM96.25 19.455L96.3712 19.5669L96.3716 19.5665L96.25 19.455ZM96.109 25.3162L95.9759 25.4136L95.9765 25.4145L96.109 25.3162ZM98.667 17.2125V17.3775C100.37 17.3775 101.604 17.9227 102.402 18.9898L102.534 18.891L102.666 18.7922C101.791 17.6213 100.446 17.0475 98.667 17.0475V17.2125ZM102.534 18.891L102.402 18.9899C103.029 19.8277 103.349 20.9072 103.349 22.2412H103.514H103.679C103.679 20.8539 103.346 19.6999 102.666 18.7921L102.534 18.891ZM103.514 22.2412H103.349C103.349 23.6849 102.984 24.8718 102.262 25.8134L102.393 25.9137L102.524 26.014C103.298 25.0041 103.679 23.7427 103.679 22.2412H103.514ZM102.393 25.9137L102.262 25.8134C101.42 26.9129 100.221 27.4674 98.6401 27.4674V27.6324V27.7974C100.309 27.7974 101.611 27.2061 102.524 26.014L102.393 25.9137ZM98.6401 27.6324V27.4674C97.163 27.4674 96.0187 26.9815 95.1864 26.0205L95.0616 26.1285L94.9369 26.2366C95.8413 27.2808 97.0826 27.7974 98.6401 27.7974V27.6324ZM95.0616 26.1285L95.1904 26.0254C94.4438 25.0932 94.0651 23.9098 94.0651 22.4628H93.9001H93.7351C93.7351 23.9698 94.1308 25.2303 94.9329 26.2317L95.0616 26.1285ZM93.9001 22.4628H94.0651C94.0651 21.1574 94.3888 20.0503 95.0291 19.1331L94.8938 19.0387L94.7585 18.9442C94.0739 19.9249 93.7351 21.1005 93.7351 22.4628H93.9001ZM94.8938 19.0387L95.0291 19.1332C95.8445 17.9658 97.0483 17.3775 98.667 17.3775V17.2125V17.0475C96.9557 17.0475 95.6439 17.6767 94.7585 18.9442L94.8938 19.0387ZM98.8013 26.4374V26.6024C100.023 26.6024 100.933 26.162 101.493 25.2624L101.353 25.1752L101.212 25.088C100.725 25.8713 99.9339 26.2724 98.8013 26.2724V26.4374ZM101.353 25.1752L101.493 25.2626C102.039 24.3878 102.31 23.3857 102.31 22.2614H102.145H101.98C101.98 23.3302 101.723 24.2706 101.213 25.0878L101.353 25.1752ZM102.145 22.2614H102.31C102.31 21.0725 101.997 20.0979 101.357 19.354L101.232 19.4617L101.107 19.5693C101.684 20.2398 101.98 21.1317 101.98 22.2614H102.145ZM101.232 19.4617L101.357 19.3545C100.717 18.6056 99.8406 18.2359 98.7476 18.2359V18.4009V18.5659C99.7582 18.5659 100.538 18.9034 101.106 19.5689L101.232 19.4617ZM98.7476 18.4009V18.2359C97.6845 18.2359 96.8066 18.604 96.1284 19.3434L96.25 19.455L96.3716 19.5665C96.9825 18.9004 97.7696 18.5659 98.7476 18.5659V18.4009ZM96.25 19.455L96.1288 19.343C95.4459 20.0828 95.1182 21.1614 95.1182 22.55H95.2832H95.4482C95.4482 21.2084 95.765 20.2236 96.3712 19.5669L96.25 19.455ZM95.2832 22.55H95.1182C95.1182 23.671 95.4012 24.6288 95.9759 25.4136L96.109 25.3162L96.2421 25.2187C95.7157 24.4997 95.4482 23.6133 95.4482 22.55H95.2832ZM96.109 25.3162L95.9765 25.4145C96.5724 26.217 97.5281 26.6024 98.8013 26.6024V26.4374V26.2724C97.5948 26.2724 96.7556 25.9102 96.2415 25.2178L96.109 25.3162ZM105.764 17.4811L105.924 17.4438L105.895 17.3161H105.764V17.4811ZM107.623 25.5042L107.463 25.5414L107.782 25.5483L107.623 25.5042ZM109.852 17.4811V17.3161H109.727L109.693 17.4369L109.852 17.4811ZM111.302 17.4811L111.461 17.4369L111.428 17.3161H111.302V17.4811ZM113.531 25.5042L113.373 25.5483L113.692 25.5414L113.531 25.5042ZM115.391 17.4811V17.3161H115.26L115.23 17.4438L115.391 17.4811ZM116.855 17.4811L117.014 17.523L117.069 17.3161H116.855V17.4811ZM114.263 27.3438V27.5087H114.391L114.423 27.3857L114.263 27.3438ZM112.86 27.3438L112.701 27.388L112.735 27.5087H112.86V27.3438ZM110.584 19.1663L110.743 19.122L110.585 18.5526L110.425 19.1218L110.584 19.1663ZM108.295 27.3438V27.5087H108.42L108.454 27.3882L108.295 27.3438ZM106.891 27.3438L106.732 27.3855L106.764 27.5087H106.891V27.3438ZM104.313 17.4811V17.3161H104.1L104.154 17.5228L104.313 17.4811ZM105.764 17.4811L105.603 17.5183L107.463 25.5414L107.623 25.5042L107.784 25.4669L105.924 17.4438L105.764 17.4811ZM107.623 25.5042L107.782 25.5483L110.011 17.5252L109.852 17.4811L109.693 17.4369L107.464 25.46L107.623 25.5042ZM109.852 17.4811V17.6461H111.302V17.4811V17.3161H109.852V17.4811ZM111.302 17.4811L111.144 17.5252L113.373 25.5483L113.531 25.5042L113.69 25.46L111.461 17.4369L111.302 17.4811ZM113.531 25.5042L113.692 25.5414L115.552 17.5183L115.391 17.4811L115.23 17.4438L113.371 25.4669L113.531 25.5042ZM115.391 17.4811V17.6461H116.855V17.4811V17.3161H115.391V17.4811ZM116.855 17.4811L116.695 17.4391L114.104 27.3018L114.263 27.3438L114.423 27.3857L117.014 17.523L116.855 17.4811ZM114.263 27.3438V27.1788H112.86V27.3438V27.5087H114.263V27.3438ZM112.86 27.3438L113.019 27.2995L110.743 19.122L110.584 19.1663L110.425 19.2105L112.701 27.388L112.86 27.3438ZM110.584 19.1663L110.425 19.1218L108.136 27.2993L108.295 27.3438L108.454 27.3882L110.743 19.2107L110.584 19.1663ZM108.295 27.3438V27.1788H106.891V27.3438V27.5087H108.295V27.3438ZM106.891 27.3438L107.051 27.302L104.473 17.4393L104.313 17.4811L104.154 17.5228L106.732 27.3855L106.891 27.3438ZM104.313 17.4811V17.6461H105.764V17.4811V17.3161H104.313V17.4811Z" fill="black" mask="url(#path-2-outside-1_2272_98)"/>
</svg>
