<svg width="23" height="23" viewBox="0 0 23 23" fill="none" xmlns="http://www.w3.org/2000/svg">
<path d="M15.7031 11.8477C15.2969 12.1836 14.9492 12.5586 14.6602 12.9727C14.0117 12.6445 13.3359 12.4023 12.6328 12.2461C11.9297 12.0898 11.2109 12.0078 10.4766 12C9.63281 12 8.82813 12.1055 8.0625 12.3164C7.29687 12.5273 6.57812 12.8242 5.90625 13.207C5.23438 13.5898 4.63281 14.0547 4.10156 14.6016C3.57031 15.1484 3.10547 15.7539 2.70703 16.418C2.30859 17.082 2.01172 17.8047 1.81641 18.5859C1.62109 19.3672 1.51563 20.1719 1.5 21H0C0 19.8594 0.167969 18.7617 0.503906 17.707C0.839844 16.6523 1.32422 15.6875 1.95703 14.8125C2.58984 13.9375 3.34375 13.1719 4.21875 12.5156C5.09375 11.8594 6.08594 11.3555 7.19531 11.0039C6.77344 10.7227 6.39844 10.3984 6.07031 10.0312C5.74219 9.66406 5.46094 9.26563 5.22656 8.83594C4.99219 8.40625 4.8125 7.95313 4.6875 7.47656C4.5625 7 4.5 6.50781 4.5 6C4.5 5.17188 4.65625 4.39453 4.96875 3.66797C5.28125 2.94141 5.71094 2.30859 6.25781 1.76953C6.80469 1.23047 7.44141 0.800781 8.16797 0.480469C8.89453 0.160156 9.67188 0 10.5 0C11.3281 0 12.1055 0.15625 12.832 0.46875C13.5586 0.78125 14.1914 1.21094 14.7305 1.75781C15.2695 2.30469 15.6992 2.94141 16.0195 3.66797C16.3398 4.39453 16.5 5.17188 16.5 6C16.5 6.50781 16.4375 7 16.3125 7.47656C16.1875 7.95313 16.0117 8.41016 15.7852 8.84766C15.5586 9.28516 15.2734 9.68359 14.9297 10.043C14.5859 10.4023 14.207 10.7266 13.793 11.0156C14.1289 11.125 14.4531 11.2461 14.7656 11.3789C15.0781 11.5117 15.3906 11.668 15.7031 11.8477ZM6 6C6 6.625 6.11719 7.20703 6.35156 7.74609C6.58594 8.28516 6.90625 8.76172 7.3125 9.17578C7.71875 9.58984 8.19531 9.91406 8.74219 10.1484C9.28906 10.3828 9.875 10.5 10.5 10.5C11.1172 10.5 11.6992 10.3828 12.2461 10.1484C12.793 9.91406 13.2695 9.59375 13.6758 9.1875C14.082 8.78125 14.4063 8.30469 14.6484 7.75781C14.8906 7.21094 15.0078 6.625 15 6C15 5.38281 14.8828 4.80078 14.6484 4.25391C14.4141 3.70703 14.0938 3.23047 13.6875 2.82422C13.2812 2.41797 12.8008 2.09375 12.2461 1.85156C11.6914 1.60938 11.1094 1.49219 10.5 1.5C9.875 1.5 9.29297 1.61719 8.75391 1.85156C8.21484 2.08594 7.73828 2.40625 7.32422 2.8125C6.91016 3.21875 6.58594 3.69922 6.35156 4.25391C6.11719 4.80859 6 5.39062 6 6ZM18.7734 11.9883C19.2891 11.9883 19.7773 12.0859 20.2383 12.2812C20.6992 12.4766 21.0977 12.7461 21.4336 13.0898C21.7695 13.4336 22.0391 13.832 22.2422 14.2852C22.4453 14.7383 22.5469 15.2266 22.5469 15.75C22.5469 16.2656 22.4492 16.75 22.2539 17.2031C22.0586 17.6563 21.7891 18.0547 21.4453 18.3984C21.1016 18.7422 20.6992 19.0117 20.2383 19.207C19.7773 19.4023 19.2891 19.5039 18.7734 19.5117C18.0156 19.5117 17.3242 19.3008 16.6992 18.8789L13.2773 22.3008C13.1289 22.4492 12.9531 22.5234 12.75 22.5234C12.5469 22.5234 12.3711 22.4492 12.2227 22.3008C12.0742 22.1523 12 21.9766 12 21.7734C12 21.5703 12.0742 21.3945 12.2227 21.2461L15.6445 17.8242C15.2227 17.1992 15.0117 16.5078 15.0117 15.75C15.0117 15.2344 15.1094 14.75 15.3047 14.2969C15.5 13.8437 15.7695 13.4453 16.1133 13.1016C16.457 12.7578 16.8555 12.4883 17.3086 12.293C17.7617 12.0977 18.25 11.9961 18.7734 11.9883ZM18.7734 18.0117C19.0859 18.0117 19.3789 17.9531 19.6523 17.8359C19.9258 17.7188 20.1641 17.5586 20.3672 17.3555C20.5703 17.1523 20.7344 16.9102 20.8594 16.6289C20.9844 16.3477 21.0469 16.0547 21.0469 15.75C21.0469 15.4375 20.9883 15.1445 20.8711 14.8711C20.7539 14.5977 20.5898 14.3594 20.3789 14.1562C20.168 13.9531 19.9297 13.7891 19.6641 13.6641C19.3984 13.5391 19.1016 13.4805 18.7734 13.4883C18.4609 13.4883 18.168 13.5469 17.8945 13.6641C17.6211 13.7812 17.3828 13.9453 17.1797 14.1562C16.9766 14.3672 16.8125 14.6055 16.6875 14.8711C16.5625 15.1367 16.5039 15.4297 16.5117 15.75C16.5117 16.0625 16.5703 16.3555 16.6875 16.6289C16.8047 16.9023 16.9648 17.1406 17.168 17.3438C17.3711 17.5469 17.6133 17.7109 17.8945 17.8359C18.1758 17.9609 18.4688 18.0195 18.7734 18.0117Z" fill="black"/>
</svg>
