<svg width="170" height="45" viewBox="0 0 170 45" fill="none" xmlns="http://www.w3.org/2000/svg">
<rect x="1.375" y="1.375" width="166.375" height="41.9375" rx="20.9688" stroke="#FFD6D6" stroke-width="2.75"/>
<mask id="path-2-outside-1_2272_93" maskUnits="userSpaceOnUse" x="43.5625" y="16.3438" width="82" height="12" fill="black">
<rect fill="white" x="43.5625" y="16.3438" width="82" height="12"/>
<path d="M48.1954 21.9995C48.8221 21.9995 49.3167 21.8742 49.6792 21.6235C50.0462 21.3729 50.2297 20.9208 50.2297 20.2673C50.2297 19.5646 49.9746 19.0857 49.4644 18.8306C49.1913 18.6963 48.8265 18.6292 48.37 18.6292H45.1071V21.9995H48.1954ZM43.771 17.4811H48.3364C49.0884 17.4811 49.7083 17.5907 50.1962 17.8101C51.1227 18.2308 51.5859 19.0074 51.5859 20.1398C51.5859 20.7306 51.4628 21.214 51.2167 21.59C50.975 21.9659 50.6348 22.2681 50.1962 22.4963C50.5811 22.653 50.8698 22.8589 51.0623 23.114C51.2592 23.3691 51.3689 23.7832 51.3912 24.3561L51.4382 25.6787C51.4517 26.0547 51.483 26.3344 51.5322 26.5179C51.6128 26.8313 51.756 27.0327 51.9619 27.1222V27.3438H50.3237C50.279 27.2587 50.2432 27.149 50.2163 27.0148C50.1895 26.8805 50.1671 26.6209 50.1492 26.236L50.0686 24.5911C50.0373 23.9465 49.7978 23.5146 49.3502 23.2953C49.0951 23.1744 48.6945 23.114 48.1484 23.114H45.1071V27.3438H43.771V17.4811ZM53.674 17.4811H60.8645V18.6896H54.9764V21.684H60.4214V22.8253H54.9764V26.1688H60.9652V27.3438H53.674V17.4811ZM67.7798 23.302L66.2826 18.9447L64.6914 23.302H67.7798ZM65.5844 17.4811H67.095L70.6735 27.3438H69.2098L68.2095 24.3896H64.3087L63.2412 27.3438H61.8716L65.5844 17.4811ZM75.6753 26.2024C76.1274 26.2024 76.4989 26.1554 76.7898 26.0614C77.309 25.8868 77.7342 25.5511 78.0654 25.0543C78.3295 24.656 78.5197 24.1457 78.6361 23.5236C78.7032 23.1521 78.7368 22.8074 78.7368 22.4896C78.7368 21.2677 78.4929 20.3188 78.005 19.6429C77.5216 18.9671 76.7406 18.6292 75.6619 18.6292H73.2919V26.2024H75.6753ZM71.9491 17.4811H75.9438C77.3 17.4811 78.3519 17.9622 79.0994 18.9246C79.7663 19.7929 80.0997 20.9052 80.0997 22.2614C80.0997 23.3087 79.9028 24.2554 79.5089 25.1013C78.8151 26.5963 77.6223 27.3438 75.9304 27.3438H71.9491V17.4811ZM85.6185 17.4811H87.532L90.3652 25.8197L93.1783 17.4811H95.0717V27.3438H93.8027V21.5228C93.8027 21.3214 93.8072 20.988 93.8162 20.5225C93.8251 20.057 93.8296 19.5579 93.8296 19.0253L91.0165 27.3438H89.6938L86.8606 19.0253V19.3274C86.8606 19.5691 86.8651 19.9384 86.874 20.4352C86.8875 20.9275 86.8942 21.2901 86.8942 21.5228V27.3438H85.6185V17.4811ZM101.363 17.2125C103.104 17.2125 104.393 17.772 105.23 18.891C105.883 19.7638 106.21 20.8805 106.21 22.2412C106.21 23.7138 105.836 24.9379 105.089 25.9137C104.211 27.0595 102.96 27.6324 101.336 27.6324C99.8184 27.6324 98.6255 27.1311 97.7572 26.1285C96.9829 25.1617 96.5957 23.9398 96.5957 22.4628C96.5957 21.1289 96.9269 19.9876 97.5894 19.0387C98.4398 17.8212 99.6975 17.2125 101.363 17.2125ZM101.497 26.4374C102.674 26.4374 103.524 26.0166 104.048 25.1752C104.576 24.3292 104.84 23.358 104.84 22.2614C104.84 21.1021 104.536 20.1689 103.927 19.4617C103.323 18.7545 102.495 18.4009 101.443 18.4009C100.423 18.4009 99.5901 18.7522 98.9456 19.455C98.301 20.1532 97.9788 21.1849 97.9788 22.55C97.9788 23.6422 98.254 24.5642 98.8046 25.3162C99.3596 26.0636 100.257 26.4374 101.497 26.4374ZM112.393 21.9995C113.02 21.9995 113.515 21.8742 113.877 21.6235C114.244 21.3729 114.428 20.9208 114.428 20.2673C114.428 19.5646 114.173 19.0857 113.662 18.8306C113.389 18.6963 113.025 18.6292 112.568 18.6292H109.305V21.9995H112.393ZM107.969 17.4811H112.534C113.286 17.4811 113.906 17.5907 114.394 17.8101C115.321 18.2308 115.784 19.0074 115.784 20.1398C115.784 20.7306 115.661 21.214 115.415 21.59C115.173 21.9659 114.833 22.2681 114.394 22.4963C114.779 22.653 115.068 22.8589 115.26 23.114C115.457 23.3691 115.567 23.7832 115.589 24.3561L115.636 25.6787C115.65 26.0547 115.681 26.3344 115.73 26.5179C115.811 26.8313 115.954 27.0327 116.16 27.1222V27.3438H114.522C114.477 27.2587 114.441 27.149 114.414 27.0148C114.387 26.8805 114.365 26.6209 114.347 26.236L114.267 24.5911C114.235 23.9465 113.996 23.5146 113.548 23.2953C113.293 23.1744 112.892 23.114 112.346 23.114H109.305V27.3438H107.969V17.4811ZM117.872 17.4811H125.062V18.6896H119.174V21.684H124.619V22.8253H119.174V26.1688H125.163V27.3438H117.872V17.4811Z"/>
</mask>
<path d="M48.1954 21.9995C48.8221 21.9995 49.3167 21.8742 49.6792 21.6235C50.0462 21.3729 50.2297 20.9208 50.2297 20.2673C50.2297 19.5646 49.9746 19.0857 49.4644 18.8306C49.1913 18.6963 48.8265 18.6292 48.37 18.6292H45.1071V21.9995H48.1954ZM43.771 17.4811H48.3364C49.0884 17.4811 49.7083 17.5907 50.1962 17.8101C51.1227 18.2308 51.5859 19.0074 51.5859 20.1398C51.5859 20.7306 51.4628 21.214 51.2167 21.59C50.975 21.9659 50.6348 22.2681 50.1962 22.4963C50.5811 22.653 50.8698 22.8589 51.0623 23.114C51.2592 23.3691 51.3689 23.7832 51.3912 24.3561L51.4382 25.6787C51.4517 26.0547 51.483 26.3344 51.5322 26.5179C51.6128 26.8313 51.756 27.0327 51.9619 27.1222V27.3438H50.3237C50.279 27.2587 50.2432 27.149 50.2163 27.0148C50.1895 26.8805 50.1671 26.6209 50.1492 26.236L50.0686 24.5911C50.0373 23.9465 49.7978 23.5146 49.3502 23.2953C49.0951 23.1744 48.6945 23.114 48.1484 23.114H45.1071V27.3438H43.771V17.4811ZM53.674 17.4811H60.8645V18.6896H54.9764V21.684H60.4214V22.8253H54.9764V26.1688H60.9652V27.3438H53.674V17.4811ZM67.7798 23.302L66.2826 18.9447L64.6914 23.302H67.7798ZM65.5844 17.4811H67.095L70.6735 27.3438H69.2098L68.2095 24.3896H64.3087L63.2412 27.3438H61.8716L65.5844 17.4811ZM75.6753 26.2024C76.1274 26.2024 76.4989 26.1554 76.7898 26.0614C77.309 25.8868 77.7342 25.5511 78.0654 25.0543C78.3295 24.656 78.5197 24.1457 78.6361 23.5236C78.7032 23.1521 78.7368 22.8074 78.7368 22.4896C78.7368 21.2677 78.4929 20.3188 78.005 19.6429C77.5216 18.9671 76.7406 18.6292 75.6619 18.6292H73.2919V26.2024H75.6753ZM71.9491 17.4811H75.9438C77.3 17.4811 78.3519 17.9622 79.0994 18.9246C79.7663 19.7929 80.0997 20.9052 80.0997 22.2614C80.0997 23.3087 79.9028 24.2554 79.5089 25.1013C78.8151 26.5963 77.6223 27.3438 75.9304 27.3438H71.9491V17.4811ZM85.6185 17.4811H87.532L90.3652 25.8197L93.1783 17.4811H95.0717V27.3438H93.8027V21.5228C93.8027 21.3214 93.8072 20.988 93.8162 20.5225C93.8251 20.057 93.8296 19.5579 93.8296 19.0253L91.0165 27.3438H89.6938L86.8606 19.0253V19.3274C86.8606 19.5691 86.8651 19.9384 86.874 20.4352C86.8875 20.9275 86.8942 21.2901 86.8942 21.5228V27.3438H85.6185V17.4811ZM101.363 17.2125C103.104 17.2125 104.393 17.772 105.23 18.891C105.883 19.7638 106.21 20.8805 106.21 22.2412C106.21 23.7138 105.836 24.9379 105.089 25.9137C104.211 27.0595 102.96 27.6324 101.336 27.6324C99.8184 27.6324 98.6255 27.1311 97.7572 26.1285C96.9829 25.1617 96.5957 23.9398 96.5957 22.4628C96.5957 21.1289 96.9269 19.9876 97.5894 19.0387C98.4398 17.8212 99.6975 17.2125 101.363 17.2125ZM101.497 26.4374C102.674 26.4374 103.524 26.0166 104.048 25.1752C104.576 24.3292 104.84 23.358 104.84 22.2614C104.84 21.1021 104.536 20.1689 103.927 19.4617C103.323 18.7545 102.495 18.4009 101.443 18.4009C100.423 18.4009 99.5901 18.7522 98.9456 19.455C98.301 20.1532 97.9788 21.1849 97.9788 22.55C97.9788 23.6422 98.254 24.5642 98.8046 25.3162C99.3596 26.0636 100.257 26.4374 101.497 26.4374ZM112.393 21.9995C113.02 21.9995 113.515 21.8742 113.877 21.6235C114.244 21.3729 114.428 20.9208 114.428 20.2673C114.428 19.5646 114.173 19.0857 113.662 18.8306C113.389 18.6963 113.025 18.6292 112.568 18.6292H109.305V21.9995H112.393ZM107.969 17.4811H112.534C113.286 17.4811 113.906 17.5907 114.394 17.8101C115.321 18.2308 115.784 19.0074 115.784 20.1398C115.784 20.7306 115.661 21.214 115.415 21.59C115.173 21.9659 114.833 22.2681 114.394 22.4963C114.779 22.653 115.068 22.8589 115.26 23.114C115.457 23.3691 115.567 23.7832 115.589 24.3561L115.636 25.6787C115.65 26.0547 115.681 26.3344 115.73 26.5179C115.811 26.8313 115.954 27.0327 116.16 27.1222V27.3438H114.522C114.477 27.2587 114.441 27.149 114.414 27.0148C114.387 26.8805 114.365 26.6209 114.347 26.236L114.267 24.5911C114.235 23.9465 113.996 23.5146 113.548 23.2953C113.293 23.1744 112.892 23.114 112.346 23.114H109.305V27.3438H107.969V17.4811ZM117.872 17.4811H125.062V18.6896H119.174V21.684H124.619V22.8253H119.174V26.1688H125.163V27.3438H117.872V17.4811Z" fill="white"/>
<path d="M49.6792 21.6235L49.5861 21.4873L49.5854 21.4878L49.6792 21.6235ZM49.4644 18.8306L49.5381 18.683L49.5372 18.6825L49.4644 18.8306ZM45.1071 18.6292V18.4642H44.9421V18.6292H45.1071ZM45.1071 21.9995H44.9421V22.1645H45.1071V21.9995ZM43.771 17.4811V17.3161H43.606V17.4811H43.771ZM50.1962 17.8101L50.2644 17.6598L50.2638 17.6596L50.1962 17.8101ZM51.2167 21.59L51.0786 21.4996L51.0779 21.5007L51.2167 21.59ZM50.1962 22.4963L50.12 22.35L49.8035 22.5147L50.134 22.6492L50.1962 22.4963ZM51.0623 23.114L50.9305 23.2134L50.9316 23.2148L51.0623 23.114ZM51.3912 24.3561L51.5561 24.3502L51.5561 24.3496L51.3912 24.3561ZM51.4382 25.6787L51.2733 25.6846L51.2733 25.6846L51.4382 25.6787ZM51.5322 26.5179L51.692 26.4769L51.6916 26.4752L51.5322 26.5179ZM51.9619 27.1222H52.1269V27.014L52.0277 26.9709L51.9619 27.1222ZM51.9619 27.3438V27.5087H52.1269V27.3438H51.9619ZM50.3237 27.3438L50.1777 27.4206L50.2241 27.5087H50.3237V27.3438ZM50.1492 26.236L50.314 26.2283L50.314 26.2279L50.1492 26.236ZM50.0686 24.5911L49.9038 24.5991L49.9038 24.5991L50.0686 24.5911ZM49.3502 23.2953L49.4228 23.1471L49.4209 23.1462L49.3502 23.2953ZM45.1071 23.114V22.949H44.9421V23.114H45.1071ZM45.1071 27.3438V27.5087H45.2721V27.3438H45.1071ZM43.771 27.3438H43.606V27.5087H43.771V27.3438ZM48.1954 21.9995V22.1645C48.842 22.1645 49.3735 22.0355 49.773 21.7593L49.6792 21.6235L49.5854 21.4878C49.2598 21.7129 48.8021 21.8345 48.1954 21.8345V21.9995ZM49.6792 21.6235L49.7723 21.7598C50.2029 21.4657 50.3947 20.9481 50.3947 20.2673H50.2297H50.0647C50.0647 20.8935 49.8896 21.2801 49.5861 21.4873L49.6792 21.6235ZM50.2297 20.2673H50.3947C50.3947 19.5195 50.1183 18.9731 49.5381 18.683L49.4644 18.8306L49.3906 18.9781C49.8309 19.1983 50.0647 19.6097 50.0647 20.2673H50.2297ZM49.4644 18.8306L49.5372 18.6825C49.233 18.5329 48.8402 18.4642 48.37 18.4642V18.6292V18.7942C48.8128 18.7942 49.1496 18.8597 49.3915 18.9786L49.4644 18.8306ZM48.37 18.6292V18.4642H45.1071V18.6292V18.7942H48.37V18.6292ZM45.1071 18.6292H44.9421V21.9995H45.1071H45.2721V18.6292H45.1071ZM45.1071 21.9995V22.1645H48.1954V21.9995V21.8345H45.1071V21.9995ZM43.771 17.4811V17.6461H48.3364V17.4811V17.3161H43.771V17.4811ZM48.3364 17.4811V17.6461C49.0739 17.6461 49.6687 17.7538 50.1285 17.9606L50.1962 17.8101L50.2638 17.6596C49.7479 17.4276 49.1029 17.3161 48.3364 17.3161V17.4811ZM50.1962 17.8101L50.1279 17.9603C50.5646 18.1586 50.8845 18.4367 51.0968 18.7926C51.3098 19.1496 51.4209 19.5959 51.4209 20.1398H51.5859H51.7509C51.7509 19.5512 51.6305 19.0431 51.3802 18.6235C51.1292 18.2028 50.7543 17.8823 50.2644 17.6598L50.1962 17.8101ZM51.5859 20.1398H51.4209C51.4209 20.7084 51.3025 21.1577 51.0786 21.4996L51.2167 21.59L51.3547 21.6804C51.6232 21.2703 51.7509 20.7528 51.7509 20.1398H51.5859ZM51.2167 21.59L51.0779 21.5007C50.8533 21.85 50.5359 22.1335 50.12 22.35L50.1962 22.4963L50.2723 22.6427C50.7337 22.4026 51.0966 22.0818 51.3555 21.6792L51.2167 21.59ZM50.1962 22.4963L50.134 22.6492C50.4994 22.7979 50.7606 22.9881 50.9305 23.2134L51.0623 23.114L51.194 23.0146C50.979 22.7296 50.6628 22.5081 50.2584 22.3435L50.1962 22.4963ZM51.0623 23.114L50.9316 23.2148C51.0968 23.4288 51.2044 23.8004 51.2264 24.3625L51.3912 24.3561L51.5561 24.3496C51.5333 23.7659 51.4216 23.3095 51.1929 23.0132L51.0623 23.114ZM51.3912 24.3561L51.2263 24.3619L51.2733 25.6846L51.4382 25.6787L51.6031 25.6729L51.5561 24.3502L51.3912 24.3561ZM51.4382 25.6787L51.2733 25.6846C51.2869 26.0634 51.3186 26.3585 51.3729 26.5607L51.5322 26.5179L51.6916 26.4752C51.6474 26.3104 51.6165 26.046 51.6031 25.6728L51.4382 25.6787ZM51.5322 26.5179L51.3724 26.559C51.4598 26.8989 51.6256 27.1559 51.8961 27.2735L51.9619 27.1222L52.0277 26.9709C51.8864 26.9095 51.7658 26.7636 51.692 26.4769L51.5322 26.5179ZM51.9619 27.1222H51.7969V27.3438H51.9619H52.1269V27.1222H51.9619ZM51.9619 27.3438V27.1788H50.3237V27.3438V27.5087H51.9619V27.3438ZM50.3237 27.3438L50.4697 27.2669C50.4347 27.2004 50.4031 27.1072 50.3781 26.9824L50.2163 27.0148L50.0545 27.0471C50.0833 27.1909 50.1232 27.317 50.1777 27.4206L50.3237 27.3438ZM50.2163 27.0148L50.3781 26.9824C50.3541 26.8622 50.332 26.6147 50.314 26.2283L50.1492 26.236L49.9843 26.2436C50.0022 26.627 50.0248 26.8988 50.0545 27.0471L50.2163 27.0148ZM50.1492 26.236L50.314 26.2279L50.2334 24.583L50.0686 24.5911L49.9038 24.5991L49.9844 26.244L50.1492 26.236ZM50.0686 24.5911L50.2334 24.5831C50.2002 23.899 49.9406 23.4008 49.4228 23.1471L49.3502 23.2953L49.2776 23.4435C49.655 23.6284 49.8744 23.994 49.9038 24.5991L50.0686 24.5911ZM49.3502 23.2953L49.4209 23.1462C49.1314 23.0091 48.7003 22.949 48.1484 22.949V23.114V23.279C48.6887 23.279 49.0588 23.3398 49.2796 23.4444L49.3502 23.2953ZM48.1484 23.114V22.949H45.1071V23.114V23.279H48.1484V23.114ZM45.1071 23.114H44.9421V27.3438H45.1071H45.2721V23.114H45.1071ZM45.1071 27.3438V27.1788H43.771V27.3438V27.5087H45.1071V27.3438ZM43.771 27.3438H43.936V17.4811H43.771H43.606V27.3438H43.771ZM53.674 17.4811V17.3161H53.509V17.4811H53.674ZM60.8645 17.4811H61.0295V17.3161H60.8645V17.4811ZM60.8645 18.6896V18.8546H61.0295V18.6896H60.8645ZM54.9764 18.6896V18.5246H54.8114V18.6896H54.9764ZM54.9764 21.684H54.8114V21.849H54.9764V21.684ZM60.4214 21.684H60.5864V21.519H60.4214V21.684ZM60.4214 22.8253V22.9903H60.5864V22.8253H60.4214ZM54.9764 22.8253V22.6603H54.8114V22.8253H54.9764ZM54.9764 26.1688H54.8114V26.3338H54.9764V26.1688ZM60.9652 26.1688H61.1302V26.0038H60.9652V26.1688ZM60.9652 27.3438V27.5087H61.1302V27.3438H60.9652ZM53.674 27.3438H53.509V27.5087H53.674V27.3438ZM53.674 17.4811V17.6461H60.8645V17.4811V17.3161H53.674V17.4811ZM60.8645 17.4811H60.6995V18.6896H60.8645H61.0295V17.4811H60.8645ZM60.8645 18.6896V18.5246H54.9764V18.6896V18.8546H60.8645V18.6896ZM54.9764 18.6896H54.8114V21.684H54.9764H55.1414V18.6896H54.9764ZM54.9764 21.684V21.849H60.4214V21.684V21.519H54.9764V21.684ZM60.4214 21.684H60.2564V22.8253H60.4214H60.5864V21.684H60.4214ZM60.4214 22.8253V22.6603H54.9764V22.8253V22.9903H60.4214V22.8253ZM54.9764 22.8253H54.8114V26.1688H54.9764H55.1414V22.8253H54.9764ZM54.9764 26.1688V26.3338H60.9652V26.1688V26.0038H54.9764V26.1688ZM60.9652 26.1688H60.8002V27.3438H60.9652H61.1302V26.1688H60.9652ZM60.9652 27.3438V27.1788H53.674V27.3438V27.5087H60.9652V27.3438ZM53.674 27.3438H53.839V17.4811H53.674H53.509V27.3438H53.674ZM67.7798 23.302V23.467H68.0109L67.9358 23.2484L67.7798 23.302ZM66.2826 18.9447L66.4386 18.8911L66.2873 18.4507L66.1276 18.8881L66.2826 18.9447ZM64.6914 23.302L64.5364 23.2454L64.4555 23.467H64.6914V23.302ZM65.5844 17.4811V17.3161H65.4702L65.4299 17.4229L65.5844 17.4811ZM67.095 17.4811L67.2501 17.4248L67.2106 17.3161H67.095V17.4811ZM70.6735 27.3438V27.5087H70.9089L70.8286 27.2875L70.6735 27.3438ZM69.2098 27.3438L69.0536 27.3967L69.0915 27.5087H69.2098V27.3438ZM68.2095 24.3896L68.3658 24.3367L68.3278 24.2246H68.2095V24.3896ZM64.3087 24.3896V24.2246H64.1929L64.1535 24.3336L64.3087 24.3896ZM63.2412 27.3438V27.5087H63.357L63.3964 27.3998L63.2412 27.3438ZM61.8716 27.3438L61.7172 27.2856L61.6332 27.5087H61.8716V27.3438ZM67.7798 23.302L67.9358 23.2484L66.4386 18.8911L66.2826 18.9447L66.1265 18.9983L67.6237 23.3556L67.7798 23.302ZM66.2826 18.9447L66.1276 18.8881L64.5364 23.2454L64.6914 23.302L64.8464 23.3586L66.4376 19.0013L66.2826 18.9447ZM64.6914 23.302V23.467H67.7798V23.302V23.137H64.6914V23.302ZM65.5844 17.4811V17.6461H67.095V17.4811V17.3161H65.5844V17.4811ZM67.095 17.4811L66.9399 17.5374L70.5184 27.4L70.6735 27.3438L70.8286 27.2875L67.2501 17.4248L67.095 17.4811ZM70.6735 27.3438V27.1788H69.2098V27.3438V27.5087H70.6735V27.3438ZM69.2098 27.3438L69.3661 27.2908L68.3658 24.3367L68.2095 24.3896L68.0532 24.4426L69.0536 27.3967L69.2098 27.3438ZM68.2095 24.3896V24.2246H64.3087V24.3896V24.5546H68.2095V24.3896ZM64.3087 24.3896L64.1535 24.3336L63.086 27.2877L63.2412 27.3438L63.3964 27.3998L64.4639 24.4457L64.3087 24.3896ZM63.2412 27.3438V27.1788H61.8716V27.3438V27.5087H63.2412V27.3438ZM61.8716 27.3438L62.026 27.4019L65.7388 17.5392L65.5844 17.4811L65.4299 17.4229L61.7172 27.2856L61.8716 27.3438ZM76.7898 26.0614L76.8405 26.2184L76.8424 26.2178L76.7898 26.0614ZM78.0654 25.0543L78.2027 25.1458L78.203 25.1455L78.0654 25.0543ZM78.6361 23.5236L78.7983 23.5539L78.7985 23.5529L78.6361 23.5236ZM78.005 19.6429L77.8708 19.7389L77.8712 19.7395L78.005 19.6429ZM73.2919 18.6292V18.4642H73.1269V18.6292H73.2919ZM73.2919 26.2024H73.1269V26.3674H73.2919V26.2024ZM71.9491 17.4811V17.3161H71.7841V17.4811H71.9491ZM79.0994 18.9246L79.2302 18.8241L79.2297 18.8233L79.0994 18.9246ZM79.5089 25.1013L79.3593 25.0317L79.3592 25.0319L79.5089 25.1013ZM71.9491 27.3438H71.7841V27.5087H71.9491V27.3438ZM75.6753 26.2024V26.3674C76.1372 26.3674 76.5274 26.3196 76.8405 26.2184L76.7898 26.0614L76.7391 25.9044C76.4703 25.9912 76.1176 26.0374 75.6753 26.0374V26.2024ZM76.7898 26.0614L76.8424 26.2178C77.3994 26.0305 77.8532 25.6702 78.2027 25.1458L78.0654 25.0543L77.9281 24.9628C77.6153 25.4321 77.2186 25.7432 76.7372 25.905L76.7898 26.0614ZM78.0654 25.0543L78.203 25.1455C78.4825 24.7238 78.6791 24.1911 78.7983 23.5539L78.6361 23.5236L78.4739 23.4932C78.3604 24.1003 78.1765 24.5881 77.9279 24.9632L78.0654 25.0543ZM78.6361 23.5236L78.7985 23.5529C78.8671 23.1735 78.9018 22.8189 78.9018 22.4896H78.7368H78.5718C78.5718 22.7959 78.5394 23.1307 78.4737 23.4942L78.6361 23.5236ZM78.7368 22.4896H78.9018C78.9018 21.2485 78.6544 20.2607 78.1388 19.5464L78.005 19.6429L77.8712 19.7395C78.3313 20.3769 78.5718 21.2869 78.5718 22.4896H78.7368ZM78.005 19.6429L78.1392 19.547C77.6159 18.8153 76.7763 18.4642 75.6619 18.4642V18.6292V18.7942C76.7048 18.7942 77.4273 19.1189 77.8708 19.7389L78.005 19.6429ZM75.6619 18.6292V18.4642H73.2919V18.6292V18.7942H75.6619V18.6292ZM73.2919 18.6292H73.1269V26.2024H73.2919H73.4569V18.6292H73.2919ZM73.2919 26.2024V26.3674H75.6753V26.2024V26.0374H73.2919V26.2024ZM71.9491 17.4811V17.6461H75.9438V17.4811V17.3161H71.9491V17.4811ZM75.9438 17.4811V17.6461C77.2557 17.6461 78.2567 18.1086 78.9691 19.0258L79.0994 18.9246L79.2297 18.8233C78.4471 17.8159 77.3444 17.3161 75.9438 17.3161V17.4811ZM79.0994 18.9246L78.9685 19.0251C79.6084 19.8583 79.9347 20.9326 79.9347 22.2614H80.0997H80.2647C80.2647 20.8777 79.9241 19.7275 79.2302 18.8241L79.0994 18.9246ZM80.0997 22.2614H79.9347C79.9347 23.2876 79.7419 24.2101 79.3593 25.0317L79.5089 25.1013L79.6585 25.171C80.0637 24.3007 80.2647 23.3298 80.2647 22.2614H80.0997ZM79.5089 25.1013L79.3592 25.0319C79.0235 25.7554 78.5714 26.2893 78.0063 26.6433C77.4411 26.9976 76.7517 27.1788 75.9304 27.1788V27.3438V27.5087C76.801 27.5087 77.554 27.3162 78.1816 26.923C78.8094 26.5295 79.3006 25.9422 79.6586 25.1708L79.5089 25.1013ZM75.9304 27.3438V27.1788H71.9491V27.3438V27.5087H75.9304V27.3438ZM71.9491 27.3438H72.1141V17.4811H71.9491H71.7841V27.3438H71.9491ZM85.6185 17.4811V17.3161H85.4535V17.4811H85.6185ZM87.532 17.4811L87.6882 17.428L87.6502 17.3161H87.532V17.4811ZM90.3652 25.8197L90.209 25.8728L90.3658 26.3342L90.5216 25.8724L90.3652 25.8197ZM93.1783 17.4811V17.3161H93.0599L93.022 17.4283L93.1783 17.4811ZM95.0717 17.4811H95.2367V17.3161H95.0717V17.4811ZM95.0717 27.3438V27.5087H95.2367V27.3438H95.0717ZM93.8027 27.3438H93.6377V27.5087H93.8027V27.3438ZM93.8162 20.5225L93.6512 20.5193L93.8162 20.5225ZM93.8296 19.0253H93.9946L93.6733 18.9724L93.8296 19.0253ZM91.0165 27.3438V27.5087H91.1349L91.1728 27.3966L91.0165 27.3438ZM89.6938 27.3438L89.5377 27.3969L89.5757 27.5087H89.6938V27.3438ZM86.8606 19.0253L87.0168 18.9721L86.6956 19.0253H86.8606ZM86.874 20.4352L86.709 20.4382L86.7091 20.4397L86.874 20.4352ZM86.8942 27.3438V27.5087H87.0592V27.3438H86.8942ZM85.6185 27.3438H85.4535V27.5087H85.6185V27.3438ZM85.6185 17.4811V17.6461H87.532V17.4811V17.3161H85.6185V17.4811ZM87.532 17.4811L87.3758 17.5342L90.209 25.8728L90.3652 25.8197L90.5215 25.7666L87.6882 17.428L87.532 17.4811ZM90.3652 25.8197L90.5216 25.8724L93.3347 17.5338L93.1783 17.4811L93.022 17.4283L90.2089 25.767L90.3652 25.8197ZM93.1783 17.4811V17.6461H95.0717V17.4811V17.3161H93.1783V17.4811ZM95.0717 17.4811H94.9067V27.3438H95.0717H95.2367V17.4811H95.0717ZM95.0717 27.3438V27.1788H93.8027V27.3438V27.5087H95.0717V27.3438ZM93.8027 27.3438H93.9677V21.5228H93.8027H93.6377V27.3438H93.8027ZM93.8027 21.5228H93.9677C93.9677 21.3231 93.9722 20.9911 93.9811 20.5256L93.8162 20.5225L93.6512 20.5193C93.6422 20.9848 93.6377 21.3197 93.6377 21.5228H93.8027ZM93.8162 20.5225L93.9811 20.5256C93.9901 20.0589 93.9946 19.5588 93.9946 19.0253H93.8296H93.6646C93.6646 19.557 93.6601 20.055 93.6512 20.5193L93.8162 20.5225ZM93.8296 19.0253L93.6733 18.9724L90.8602 27.2909L91.0165 27.3438L91.1728 27.3966L93.9859 19.0781L93.8296 19.0253ZM91.0165 27.3438V27.1788H89.6938V27.3438V27.5087H91.0165V27.3438ZM89.6938 27.3438L89.85 27.2906L87.0168 18.9721L86.8606 19.0253L86.7044 19.0785L89.5377 27.3969L89.6938 27.3438ZM86.8606 19.0253H86.6956V19.3274H86.8606H87.0256V19.0253H86.8606ZM86.8606 19.3274H86.6956C86.6956 19.5706 86.7001 19.9411 86.709 20.4382L86.874 20.4352L87.039 20.4322C87.03 19.9356 87.0256 19.5675 87.0256 19.3274H86.8606ZM86.874 20.4352L86.7091 20.4397C86.7225 20.9318 86.7292 21.2925 86.7292 21.5228H86.8942H87.0592C87.0592 21.2877 87.0524 20.9233 87.039 20.4307L86.874 20.4352ZM86.8942 21.5228H86.7292V27.3438H86.8942H87.0592V21.5228H86.8942ZM86.8942 27.3438V27.1788H85.6185V27.3438V27.5087H86.8942V27.3438ZM85.6185 27.3438H85.7835V17.4811H85.6185H85.4535V27.3438H85.6185ZM105.23 18.891L105.098 18.9898L105.098 18.9899L105.23 18.891ZM105.089 25.9137L104.958 25.8134L104.958 25.8134L105.089 25.9137ZM97.7572 26.1285L97.6283 26.2318L97.6325 26.2366L97.7572 26.1285ZM97.5894 19.0387L97.4541 18.9442L97.4541 18.9442L97.5894 19.0387ZM104.048 25.1752L103.908 25.0878L103.908 25.088L104.048 25.1752ZM103.927 19.4617L103.802 19.5689L103.802 19.5693L103.927 19.4617ZM98.9456 19.455L99.0668 19.5669L99.0672 19.5665L98.9456 19.455ZM98.8046 25.3162L98.6714 25.4136L98.6721 25.4145L98.8046 25.3162ZM101.363 17.2125V17.3775C103.066 17.3775 104.299 17.9227 105.098 18.9898L105.23 18.891L105.362 18.7922C104.486 17.6213 103.141 17.0475 101.363 17.0475V17.2125ZM105.23 18.891L105.098 18.9899C105.725 19.8277 106.045 20.9072 106.045 22.2412H106.21H106.375C106.375 20.8539 106.041 19.6999 105.362 18.7921L105.23 18.891ZM106.21 22.2412H106.045C106.045 23.6849 105.679 24.8718 104.958 25.8134L105.089 25.9137L105.22 26.014C105.993 25.0041 106.375 23.7427 106.375 22.2412H106.21ZM105.089 25.9137L104.958 25.8134C104.116 26.9129 102.916 27.4674 101.336 27.4674V27.6324V27.7974C103.004 27.7974 104.307 27.2061 105.22 26.014L105.089 25.9137ZM101.336 27.6324V27.4674C99.8586 27.4674 98.7142 26.9815 97.8819 26.0205L97.7572 26.1285L97.6325 26.2366C98.5368 27.2808 99.7782 27.7974 101.336 27.7974V27.6324ZM97.7572 26.1285L97.886 26.0254C97.1394 25.0932 96.7607 23.9098 96.7607 22.4628H96.5957H96.4307C96.4307 23.9698 96.8264 25.2303 97.6284 26.2317L97.7572 26.1285ZM96.5957 22.4628H96.7607C96.7607 21.1574 97.0844 20.0503 97.7246 19.1331L97.5894 19.0387L97.4541 18.9442C96.7695 19.9249 96.4307 21.1005 96.4307 22.4628H96.5957ZM97.5894 19.0387L97.7246 19.1332C98.5401 17.9658 99.7438 17.3775 101.363 17.3775V17.2125V17.0475C99.6512 17.0475 98.3395 17.6767 97.4541 18.9442L97.5894 19.0387ZM101.497 26.4374V26.6024C102.718 26.6024 103.628 26.162 104.188 25.2624L104.048 25.1752L103.908 25.088C103.421 25.8713 102.629 26.2724 101.497 26.2724V26.4374ZM104.048 25.1752L104.188 25.2626C104.734 24.3878 105.005 23.3857 105.005 22.2614H104.84H104.675C104.675 23.3302 104.418 24.2706 103.908 25.0878L104.048 25.1752ZM104.84 22.2614H105.005C105.005 21.0725 104.693 20.0979 104.052 19.354L103.927 19.4617L103.802 19.5693C104.379 20.2398 104.675 21.1317 104.675 22.2614H104.84ZM103.927 19.4617L104.053 19.3545C103.413 18.6056 102.536 18.2359 101.443 18.2359V18.4009V18.5659C102.454 18.5659 103.233 18.9034 103.802 19.5689L103.927 19.4617ZM101.443 18.4009V18.2359C100.38 18.2359 99.5021 18.604 98.824 19.3434L98.9456 19.455L99.0672 19.5665C99.6781 18.9004 100.465 18.5659 101.443 18.5659V18.4009ZM98.9456 19.455L98.8243 19.343C98.1415 20.0828 97.8138 21.1614 97.8138 22.55H97.9788H98.1438C98.1438 21.2084 98.4606 20.2236 99.0668 19.5669L98.9456 19.455ZM97.9788 22.55H97.8138C97.8138 23.671 98.0968 24.6288 98.6714 25.4136L98.8046 25.3162L98.9377 25.2187C98.4113 24.4997 98.1438 23.6133 98.1438 22.55H97.9788ZM98.8046 25.3162L98.6721 25.4145C99.268 26.217 100.224 26.6024 101.497 26.6024V26.4374V26.2724C100.29 26.2724 99.4512 25.9102 98.937 25.2178L98.8046 25.3162ZM113.877 21.6235L113.784 21.4873L113.783 21.4878L113.877 21.6235ZM113.662 18.8306L113.736 18.683L113.735 18.6825L113.662 18.8306ZM109.305 18.6292V18.4642H109.14V18.6292H109.305ZM109.305 21.9995H109.14V22.1645H109.305V21.9995ZM107.969 17.4811V17.3161H107.804V17.4811H107.969ZM114.394 17.8101L114.462 17.6598L114.462 17.6596L114.394 17.8101ZM115.415 21.59L115.277 21.4996L115.276 21.5007L115.415 21.59ZM114.394 22.4963L114.318 22.35L114.002 22.5147L114.332 22.6492L114.394 22.4963ZM115.26 23.114L115.129 23.2134L115.13 23.2148L115.26 23.114ZM115.589 24.3561L115.754 24.3502L115.754 24.3496L115.589 24.3561ZM115.636 25.6787L115.471 25.6846V25.6846L115.636 25.6787ZM115.73 26.5179L115.89 26.4769L115.89 26.4752L115.73 26.5179ZM116.16 27.1222H116.325V27.014L116.226 26.9709L116.16 27.1222ZM116.16 27.3438V27.5087H116.325V27.3438H116.16ZM114.522 27.3438L114.376 27.4206L114.422 27.5087H114.522V27.3438ZM114.347 26.236L114.512 26.2283L114.512 26.2279L114.347 26.236ZM114.267 24.5911L114.102 24.5991V24.5991L114.267 24.5911ZM113.548 23.2953L113.621 23.1471L113.619 23.1462L113.548 23.2953ZM109.305 23.114V22.949H109.14V23.114H109.305ZM109.305 27.3438V27.5087H109.47V27.3438H109.305ZM107.969 27.3438H107.804V27.5087H107.969V27.3438ZM112.393 21.9995V22.1645C113.04 22.1645 113.572 22.0355 113.971 21.7593L113.877 21.6235L113.783 21.4878C113.458 21.7129 113 21.8345 112.393 21.8345V21.9995ZM113.877 21.6235L113.97 21.7598C114.401 21.4657 114.593 20.9481 114.593 20.2673H114.428H114.263C114.263 20.8935 114.088 21.2801 113.784 21.4873L113.877 21.6235ZM114.428 20.2673H114.593C114.593 19.5195 114.316 18.9731 113.736 18.683L113.662 18.8306L113.589 18.9781C114.029 19.1983 114.263 19.6097 114.263 20.2673H114.428ZM113.662 18.8306L113.735 18.6825C113.431 18.5329 113.038 18.4642 112.568 18.4642V18.6292V18.7942C113.011 18.7942 113.348 18.8597 113.59 18.9786L113.662 18.8306ZM112.568 18.6292V18.4642H109.305V18.6292V18.7942H112.568V18.6292ZM109.305 18.6292H109.14V21.9995H109.305H109.47V18.6292H109.305ZM109.305 21.9995V22.1645H112.393V21.9995V21.8345H109.305V21.9995ZM107.969 17.4811V17.6461H112.534V17.4811V17.3161H107.969V17.4811ZM112.534 17.4811V17.6461C113.272 17.6461 113.867 17.7538 114.327 17.9606L114.394 17.8101L114.462 17.6596C113.946 17.4276 113.301 17.3161 112.534 17.3161V17.4811ZM114.394 17.8101L114.326 17.9603C114.763 18.1586 115.083 18.4367 115.295 18.7926C115.508 19.1496 115.619 19.5959 115.619 20.1398H115.784H115.949C115.949 19.5512 115.828 19.0431 115.578 18.6235C115.327 18.2028 114.952 17.8823 114.462 17.6598L114.394 17.8101ZM115.784 20.1398H115.619C115.619 20.7084 115.5 21.1577 115.277 21.4996L115.415 21.59L115.553 21.6804C115.821 21.2703 115.949 20.7528 115.949 20.1398H115.784ZM115.415 21.59L115.276 21.5007C115.051 21.85 114.734 22.1335 114.318 22.35L114.394 22.4963L114.47 22.6427C114.932 22.4026 115.295 22.0818 115.553 21.6792L115.415 21.59ZM114.394 22.4963L114.332 22.6492C114.697 22.7979 114.959 22.9881 115.129 23.2134L115.26 23.114L115.392 23.0146C115.177 22.7296 114.861 22.5081 114.456 22.3435L114.394 22.4963ZM115.26 23.114L115.13 23.2148C115.295 23.4288 115.402 23.8004 115.424 24.3625L115.589 24.3561L115.754 24.3496C115.731 23.7659 115.62 23.3095 115.391 23.0132L115.26 23.114ZM115.589 24.3561L115.424 24.3619L115.471 25.6846L115.636 25.6787L115.801 25.6729L115.754 24.3502L115.589 24.3561ZM115.636 25.6787L115.471 25.6846C115.485 26.0634 115.517 26.3585 115.571 26.5607L115.73 26.5179L115.89 26.4752C115.845 26.3104 115.814 26.046 115.801 25.6728L115.636 25.6787ZM115.73 26.5179L115.57 26.559C115.658 26.8989 115.824 27.1559 116.094 27.2735L116.16 27.1222L116.226 26.9709C116.084 26.9095 115.964 26.7636 115.89 26.4769L115.73 26.5179ZM116.16 27.1222H115.995V27.3438H116.16H116.325V27.1222H116.16ZM116.16 27.3438V27.1788H114.522V27.3438V27.5087H116.16V27.3438ZM114.522 27.3438L114.668 27.2669C114.633 27.2004 114.601 27.1072 114.576 26.9824L114.414 27.0148L114.253 27.0471C114.281 27.1909 114.321 27.317 114.376 27.4206L114.522 27.3438ZM114.414 27.0148L114.576 26.9824C114.552 26.8622 114.53 26.6147 114.512 26.2283L114.347 26.236L114.182 26.2436C114.2 26.627 114.223 26.8988 114.253 27.0471L114.414 27.0148ZM114.347 26.236L114.512 26.2279L114.431 24.583L114.267 24.5911L114.102 24.5991L114.182 26.244L114.347 26.236ZM114.267 24.5911L114.431 24.5831C114.398 23.899 114.139 23.4008 113.621 23.1471L113.548 23.2953L113.476 23.4435C113.853 23.6284 114.072 23.994 114.102 24.5991L114.267 24.5911ZM113.548 23.2953L113.619 23.1462C113.329 23.0091 112.898 22.949 112.346 22.949V23.114V23.279C112.887 23.279 113.257 23.3398 113.478 23.4444L113.548 23.2953ZM112.346 23.114V22.949H109.305V23.114V23.279H112.346V23.114ZM109.305 23.114H109.14V27.3438H109.305H109.47V23.114H109.305ZM109.305 27.3438V27.1788H107.969V27.3438V27.5087H109.305V27.3438ZM107.969 27.3438H108.134V17.4811H107.969H107.804V27.3438H107.969ZM117.872 17.4811V17.3161H117.707V17.4811H117.872ZM125.062 17.4811H125.228V17.3161H125.062V17.4811ZM125.062 18.6896V18.8546H125.228V18.6896H125.062ZM119.174 18.6896V18.5246H119.009V18.6896H119.174ZM119.174 21.684H119.009V21.849H119.174V21.684ZM124.619 21.684H124.784V21.519H124.619V21.684ZM124.619 22.8253V22.9903H124.784V22.8253H124.619ZM119.174 22.8253V22.6603H119.009V22.8253H119.174ZM119.174 26.1688H119.009V26.3338H119.174V26.1688ZM125.163 26.1688H125.328V26.0038H125.163V26.1688ZM125.163 27.3438V27.5087H125.328V27.3438H125.163ZM117.872 27.3438H117.707V27.5087H117.872V27.3438ZM117.872 17.4811V17.6461H125.062V17.4811V17.3161H117.872V17.4811ZM125.062 17.4811H124.897V18.6896H125.062H125.228V17.4811H125.062ZM125.062 18.6896V18.5246H119.174V18.6896V18.8546H125.062V18.6896ZM119.174 18.6896H119.009V21.684H119.174H119.339V18.6896H119.174ZM119.174 21.684V21.849H124.619V21.684V21.519H119.174V21.684ZM124.619 21.684H124.454V22.8253H124.619H124.784V21.684H124.619ZM124.619 22.8253V22.6603H119.174V22.8253V22.9903H124.619V22.8253ZM119.174 22.8253H119.009V26.1688H119.174H119.339V22.8253H119.174ZM119.174 26.1688V26.3338H125.163V26.1688V26.0038H119.174V26.1688ZM125.163 26.1688H124.998V27.3438H125.163H125.328V26.1688H125.163ZM125.163 27.3438V27.1788H117.872V27.3438V27.5087H125.163V27.3438ZM117.872 27.3438H118.037V17.4811H117.872H117.707V27.3438H117.872Z" fill="black" mask="url(#path-2-outside-1_2272_93)"/>
</svg>
